<svg id="Vrstva_1" data-name="Vrstva 1" xmlns="http://www.w3.org/2000/svg" viewBox="0 0 480 480"><defs><style>.cls-1{fill:#fefefe;}.cls-2{fill:#fff;}.cls-3{fill:#fdfdfd;}</style></defs><path class="cls-1" d="M239.88,480Q120.49,480,1.1,480c-.9,0-1.1-.2-1.1-1.1Q0,240,0,1.1C0,.2.2,0,1.1,0Q240,0,478.9,0c.9,0,1.1.2,1.1,1.1q0,238.91,0,477.8c0,.9-.2,1.1-1.1,1.1Q359.4,480,239.88,480ZM240,363a111.08,111.08,0,0,0,111-111.4c-.08-61.3-50.29-110.92-111.57-110.73C178.58,141,128.85,190.91,128.87,252A111.15,111.15,0,0,0,240,363Z"/><path class="cls-2" d="M240,363A111.15,111.15,0,0,1,128.87,252c0-61.12,49.71-111,110.52-111.19,61.28-.19,111.49,49.43,111.57,110.73A111.08,111.08,0,0,1,240,363ZM143.09,251.9A96.82,96.82,0,1,0,240,155.08,96.94,96.94,0,0,0,143.09,251.9Z"/><path class="cls-1" d="M143.09,251.9a96.82,96.82,0,1,1,96.72,96.83A97,97,0,0,1,143.09,251.9Zm153.91.15V229.62a45.69,45.69,0,0,0-.37-5.73c-2.1-16.18-16.33-29.08-32.63-29.24s-32.33,0-48.49,0a25.42,25.42,0,0,0-2.89.14,34.07,34.07,0,0,0-30.31,34.12q0,23.06,0,46.11a33.78,33.78,0,0,0,1.07,8.73c4.1,15.4,17.4,25.55,33.7,25.58q22.58,0,45.15,0a35.68,35.68,0,0,0,8.74-1A34.09,34.09,0,0,0,297,275C297,267.33,297,259.69,297,252.05Z"/><path class="cls-2" d="M297,252.05c0,7.64,0,15.28,0,22.92a34.09,34.09,0,0,1-26,33.33,35.68,35.68,0,0,1-8.74,1q-22.58,0-45.15,0c-16.3,0-29.6-10.18-33.7-25.58A33.78,33.78,0,0,1,182.3,275q0-23.06,0-46.11a34.07,34.07,0,0,1,30.31-34.12,25.42,25.42,0,0,1,2.89-.14c16.16,0,32.33-.12,48.49,0s30.53,13.06,32.63,29.24a45.69,45.69,0,0,1,.37,5.73Zm-57,46c7.48,0,15,0,22.44,0a23.36,23.36,0,0,0,23.63-23.65q0-22.55,0-45.11a21.55,21.55,0,0,0-.36-4.17,23.38,23.38,0,0,0-23.5-19.39q-22.32,0-44.63,0a24.5,24.5,0,0,0-3.83.27,23.39,23.39,0,0,0-20,23.57q0,22.32,0,44.64a24.43,24.43,0,0,0,.25,3.82,23.37,23.37,0,0,0,23.56,20Z"/><path class="cls-3" d="M240,298.07H217.57a23.37,23.37,0,0,1-23.56-20,24.43,24.43,0,0,1-.25-3.82q0-22.32,0-44.64a23.39,23.39,0,0,1,20-23.57,24.5,24.5,0,0,1,3.83-.27q22.31,0,44.63,0a23.38,23.38,0,0,1,23.5,19.39,21.55,21.55,0,0,1,.36,4.17q0,22.56,0,45.11a23.36,23.36,0,0,1-23.63,23.65C255,298.09,247.48,298.07,240,298.07Zm-27.25-47a27.94,27.94,0,1,0,28.34-27.84A28,28,0,0,0,212.75,251Zm64.19-29.72a6.66,6.66,0,1,0-6.76,6.66A6.7,6.7,0,0,0,276.94,221.3Z"/><path class="cls-2" d="M212.75,251a27.94,27.94,0,1,1,27.68,28A28,28,0,0,1,212.75,251Zm45.85.12A17.91,17.91,0,1,0,240.53,269,17.88,17.88,0,0,0,258.6,251.14Z"/><path class="cls-2" d="M276.94,221.3a6.66,6.66,0,1,1-6.61-6.68A6.72,6.72,0,0,1,276.94,221.3Z"/><path class="cls-3" d="M258.6,251.14a17.91,17.91,0,1,1-17.78-17.9A17.93,17.93,0,0,1,258.6,251.14Z"/></svg>