<svg xmlns="http://www.w3.org/2000/svg" viewBox="0 0 1164.39 326.74"><defs><style>.cls-1{fill:#c60a0a;}.cls-2{fill:#333;}.cls-3{fill:#fff;fill-opacity:0;}</style></defs><g id="Vrstva_2" data-name="Vrstva 2"><g id="Livello_1" data-name="Livello 1"><path class="cls-1" d="M234.69,237.77a49.18,49.18,0,0,0,14.84-36q0-19.45-14.95-36.19,15-17,14.95-36.19a49.17,49.17,0,0,0-14.84-36A48.49,48.49,0,0,0,199,78.53H30.27V252.71H199a48.49,48.49,0,0,0,35.67-14.93ZM59.49,108H199a20.35,20.35,0,0,1,15.06,6.34,21.61,21.61,0,0,1,0,30.36A20.32,20.32,0,0,1,199,151H59.49V108Zm0,72.48H199a20.36,20.36,0,0,1,15.06,6.31,21.4,21.4,0,0,1,0,30.19A20.36,20.36,0,0,1,199,223.25H59.49Z"/><path class="cls-1" d="M293.05,180.44h69.31l72.48,72.25h41.39l-72.48-72.25h28.42a50.94,50.94,0,0,0,50.92-51,49.27,49.27,0,0,0-14.84-36,48.7,48.7,0,0,0-35.9-15H263.83V252.7h29.22V180.45Zm0-72.48h139.3a21.47,21.47,0,0,1,15.18,36.7A20.71,20.71,0,0,1,432.35,151H293.05V108Z"/><polygon class="cls-1" points="837.22 78.51 763.24 212.99 641.86 0 608.6 0 747.51 252.69 779.23 252.69 870.74 78.51 837.22 78.51"/><polygon class="cls-1" points="900.14 78.51 884.34 107.96 1103.61 107.96 1103.61 78.51 900.14 78.51"/><polygon class="cls-1" points="812.4 252.7 1103.61 252.7 1103.61 223.24 828.21 223.24 812.4 252.7"/><polygon class="cls-1" points="1103.2 295.55 1103.2 325.01 725.02 325.01 708 295.55 605.23 117.76 521.48 252.69 485.63 252.69 589.13 78.5 621.32 78.5 744.18 295.55 1103.2 295.55"/><polygon class="cls-2" points="29.39 288.42 54.51 288.42 54.51 326.73 63.81 326.73 63.81 288.42 89 288.42 89 279.05 29.39 279.05 29.39 288.42"/><path class="cls-2" d="M156.11,303.41A14.28,14.28,0,0,0,146.06,279H100.67v47.68H110V307.6h17.23l19.18,19.12h13.19L140.4,307.6H146a13.8,13.8,0,0,0,10.1-4.19ZM110,298.23v-9.81h36.08a4.91,4.91,0,0,1,0,9.82H110Z"/><polygon class="cls-2" points="293.62 315.7 255.28 279.05 243.31 279.05 243.31 326.73 252.63 326.73 252.63 290.15 290.89 326.73 302.93 326.73 302.93 279.05 293.62 279.05 293.62 315.7"/><path class="cls-2" d="M321.9,283.24a14.32,14.32,0,0,0,0,20.18,13.65,13.65,0,0,0,10,4.19h31.29a4.61,4.61,0,0,1,3.43,1.44,4.88,4.88,0,0,1,0,6.88,4.6,4.6,0,0,1-3.43,1.43H317.74v9.37h45.45a13.67,13.67,0,0,0,10-4.18,14.24,14.24,0,0,0-10-24.32H331.9a4.57,4.57,0,0,1-3.42-1.44,4.93,4.93,0,0,1,0-6.92,4.57,4.57,0,0,1,3.42-1.44h45.45v-9.37H331.9a13.64,13.64,0,0,0-10,4.19Z"/><path class="cls-2" d="M436,279.05H390.57v47.68h9.31V307.61H436a13.64,13.64,0,0,0,10-4.19,14.32,14.32,0,0,0,0-20.18,13.65,13.65,0,0,0-10-4.19Zm3.42,17.74a4.57,4.57,0,0,1-3.42,1.44H399.88v-9.81H436a4.57,4.57,0,0,1,3.42,1.44,4.93,4.93,0,0,1,0,6.92Z"/><path class="cls-2" d="M505.64,279.05H474.35a13.69,13.69,0,0,0-10,4.15,13.87,13.87,0,0,0-4.13,10.11v19.16a14,14,0,0,0,4,10.26,13.8,13.8,0,0,0,10.18,4h31.29a13.84,13.84,0,0,0,10.24-3.95,14.07,14.07,0,0,0,3.92-10.32V293.31a14,14,0,0,0-4-10.2,13.72,13.72,0,0,0-10.12-4.06Zm4.84,33.41c0,3.34-1.54,4.89-4.85,4.89H474.34c-3.31,0-4.85-1.56-4.85-4.89V293.31a4.74,4.74,0,0,1,4.85-4.89h31.29a4.73,4.73,0,0,1,3.52,1.32,4.79,4.79,0,0,1,1.33,3.57v19.15Z"/><path class="cls-2" d="M590.11,303.41A14.28,14.28,0,0,0,580.06,279H534.67v47.68H544V307.6h17.23l19.18,19.12h13.19L574.4,307.6H580a13.8,13.8,0,0,0,10.1-4.19ZM544,298.23v-9.81h36.08a4.91,4.91,0,0,1,0,9.82H544Z"/><polygon class="cls-2" points="603.46 288.42 628.58 288.42 628.58 326.73 637.89 326.73 637.89 288.42 663.07 288.42 663.07 279.05 603.46 279.05 603.46 288.42"/><polygon class="cls-2" points="206.9 279.05 197.47 279.05 169.15 326.73 180.46 326.73 202.19 291.31 223.91 326.73 235.22 326.73 206.9 279.05"/><polygon class="cls-2" points="603.8 173.83 563.66 243.36 643.96 243.36 603.8 173.83"/><polygon class="cls-2" points="761.84 153.29 801.99 83.75 721.7 83.75 761.84 153.29"/><polygon class="cls-1" points="1151.41 166.04 1096.07 134.09 1096.07 150.99 867.72 150.99 851.91 180.43 1096.07 180.43 1096.07 198 1151.41 166.04"/><rect class="cls-3" width="1164.39" height="326.72"/></g></g></svg>